<svg width="1280" height="360" viewBox="0 0 1280 360" fill="none" xmlns="http://www.w3.org/2000/svg" role="img" aria-label="Iris, god-mode for your home network">
  <defs>
    <radialGradient id="space" cx="30%" cy="42%" r="90%">
      <stop offset="0%" stop-color="#0c1622"/>
      <stop offset="45%" stop-color="#080a12"/>
      <stop offset="100%" stop-color="#05060a"/>
    </radialGradient>
    <radialGradient id="nebulaTeal" cx="50%" cy="50%" r="50%">
      <stop offset="0%" stop-color="#0e5c58" stop-opacity="0.55"/>
      <stop offset="100%" stop-color="#0e5c58" stop-opacity="0"/>
    </radialGradient>
    <radialGradient id="nebulaIndigo" cx="50%" cy="50%" r="50%">
      <stop offset="0%" stop-color="#2a2f6b" stop-opacity="0.5"/>
      <stop offset="100%" stop-color="#2a2f6b" stop-opacity="0"/>
    </radialGradient>
    <radialGradient id="nebulaViolet" cx="50%" cy="50%" r="50%">
      <stop offset="0%" stop-color="#5b2a6b" stop-opacity="0.32"/>
      <stop offset="100%" stop-color="#5b2a6b" stop-opacity="0"/>
    </radialGradient>
    <radialGradient id="starGlow" cx="50%" cy="50%" r="50%">
      <stop offset="0%" stop-color="#ffffff" stop-opacity="0.9"/>
      <stop offset="100%" stop-color="#ffffff" stop-opacity="0"/>
    </radialGradient>
    <radialGradient id="nodeGlow" cx="50%" cy="50%" r="50%">
      <stop offset="0%" stop-color="#7dd3fc" stop-opacity="0.9"/>
      <stop offset="100%" stop-color="#7dd3fc" stop-opacity="0"/>
    </radialGradient>
    <radialGradient id="iris2" cx="50%" cy="50%" r="50%">
      <stop offset="0%" stop-color="#34d399"/>
      <stop offset="55%" stop-color="#0ea5a4"/>
      <stop offset="100%" stop-color="#0b3b3a"/>
    </radialGradient>
    <linearGradient id="sweep2" x1="190" y1="180" x2="300" y2="120" gradientUnits="userSpaceOnUse">
      <stop offset="0%" stop-color="#34d399" stop-opacity="0.85"/>
      <stop offset="100%" stop-color="#34d399" stop-opacity="0"/>
    </linearGradient>
    <linearGradient id="wordmark" x1="470" y1="120" x2="900" y2="240" gradientUnits="userSpaceOnUse">
      <stop offset="0%" stop-color="#ffffff"/>
      <stop offset="100%" stop-color="#9ff3d8"/>
    </linearGradient>
  </defs>

  <rect width="1280" height="360" fill="url(#space)"/>

  <!-- nebula clouds -->
  <ellipse cx="250" cy="150" rx="520" ry="360" fill="url(#nebulaTeal)"/>
  <ellipse cx="1080" cy="90" rx="600" ry="380" fill="url(#nebulaIndigo)"/>
  <ellipse cx="900" cy="330" rx="520" ry="300" fill="url(#nebulaViolet)"/>

  <!-- starfield -->
  <circle cx="46.9" cy="244.9" r="1.34" fill="#e8f0ff" opacity="0.64"/><circle cx="994.2" cy="299.7" r="1.03" fill="#e8f0ff" opacity="0.22"/><circle cx="312.6" cy="16.0" r="0.82" fill="#bfe6ff" opacity="0.23"/><circle cx="675.1" cy="62.3" r="0.61" fill="#e8f0ff" opacity="0.30"/><circle cx="296.6" cy="135.0" r="1.02" fill="#e8f0ff" opacity="0.23"/><circle cx="960.8" cy="338.3" r="0.80" fill="#bfe6ff" opacity="0.39"/><circle cx="193.1" cy="102.8" r="1.08" fill="#e8f0ff" opacity="0.72"/><circle cx="302.2" cy="130.2" r="0.41" fill="#e8f0ff" opacity="0.40"/><circle cx="447.2" cy="78.0" r="0.74" fill="#e8f0ff" opacity="0.48"/><circle cx="499.2" cy="88.6" r="1.10" fill="#e8f0ff" opacity="0.58"/><circle cx="467.9" cy="141.2" r="0.43" fill="#e8f0ff" opacity="0.58"/><circle cx="127.2" cy="175.9" r="1.32" fill="#e8f0ff" opacity="0.38"/><circle cx="228.6" cy="139.8" r="0.49" fill="#bfe6ff" opacity="0.42"/><circle cx="498.8" cy="274.0" r="0.36" fill="#e8f0ff" opacity="0.24"/><circle cx="115.8" cy="328.5" r="1.14" fill="#bfe6ff" opacity="0.59"/><circle cx="1215.3" cy="196.2" r="0.92" fill="#bfe6ff" opacity="0.16"/><circle cx="364.9" cy="262.4" r="0.48" fill="#e8f0ff" opacity="0.35"/><circle cx="646.9" cy="96.7" r="0.51" fill="#e8f0ff" opacity="0.48"/><circle cx="1186.1" cy="146.6" r="0.91" fill="#e8f0ff" opacity="0.39"/><circle cx="897.6" cy="357.7" r="1.13" fill="#e8f0ff" opacity="0.31"/><circle cx="1021.9" cy="33.6" r="1.20" fill="#e8f0ff" opacity="0.74"/><circle cx="651.2" cy="1.0" r="1.31" fill="#e8f0ff" opacity="0.43"/><circle cx="220.9" cy="340.8" r="0.90" fill="#e8f0ff" opacity="0.41"/><circle cx="159.5" cy="104.1" r="0.63" fill="#e8f0ff" opacity="0.34"/><circle cx="1135.2" cy="77.5" r="1.17" fill="#e8f0ff" opacity="0.21"/><circle cx="568.1" cy="345.1" r="0.92" fill="#e8f0ff" opacity="0.23"/><circle cx="1130.2" cy="31.4" r="0.95" fill="#e8f0ff" opacity="0.57"/><circle cx="1118.2" cy="76.7" r="0.92" fill="#e8f0ff" opacity="0.25"/><circle cx="144.8" cy="198.2" r="0.91" fill="#e8f0ff" opacity="0.20"/><circle cx="809.2" cy="215.5" r="0.93" fill="#e8f0ff" opacity="0.29"/><circle cx="113.3" cy="147.5" r="0.69" fill="#e8f0ff" opacity="0.30"/><circle cx="1134.9" cy="203.2" r="1.20" fill="#e8f0ff" opacity="0.65"/><circle cx="899.9" cy="109.4" r="0.80" fill="#e8f0ff" opacity="0.51"/><circle cx="1164.3" cy="315.7" r="0.49" fill="#e8f0ff" opacity="0.68"/><circle cx="695.6" cy="335.6" r="1.31" fill="#e8f0ff" opacity="0.33"/><circle cx="1226.8" cy="315.5" r="0.63" fill="#e8f0ff" opacity="0.37"/><circle cx="603.0" cy="308.4" r="1.30" fill="#bfe6ff" opacity="0.39"/><circle cx="737.2" cy="135.8" r="0.87" fill="#bfe6ff" opacity="0.18"/><circle cx="907.9" cy="62.3" r="0.56" fill="#e8f0ff" opacity="0.35"/><circle cx="127.5" cy="311.5" r="1.33" fill="#e8f0ff" opacity="0.64"/><circle cx="1186.7" cy="185.2" r="0.60" fill="#e8f0ff" opacity="0.24"/><circle cx="583.2" cy="356.8" r="0.76" fill="#e8f0ff" opacity="0.20"/><circle cx="788.9" cy="96.9" r="1.28" fill="#e8f0ff" opacity="0.38"/><circle cx="1122.9" cy="45.4" r="1.00" fill="#bfe6ff" opacity="0.40"/><circle cx="684.8" cy="58.0" r="1.19" fill="#e8f0ff" opacity="0.25"/><circle cx="1105.1" cy="186.9" r="0.71" fill="#e8f0ff" opacity="0.74"/><circle cx="657.4" cy="132.4" r="1.36" fill="#e8f0ff" opacity="0.56"/><circle cx="623.2" cy="275.5" r="0.67" fill="#e8f0ff" opacity="0.38"/><circle cx="189.3" cy="263.4" r="0.73" fill="#e8f0ff" opacity="0.18"/><circle cx="1123.0" cy="314.6" r="0.66" fill="#e8f0ff" opacity="0.35"/><circle cx="1076.9" cy="43.4" r="0.68" fill="#e8f0ff" opacity="0.29"/><circle cx="645.8" cy="84.8" r="0.62" fill="#e8f0ff" opacity="0.34"/><circle cx="316.4" cy="97.3" r="1.34" fill="#e8f0ff" opacity="0.33"/><circle cx="1079.2" cy="358.5" r="1.25" fill="#e8f0ff" opacity="0.22"/><circle cx="970.1" cy="340.2" r="0.35" fill="#e8f0ff" opacity="0.66"/><circle cx="178.7" cy="36.8" r="1.22" fill="#e8f0ff" opacity="0.16"/><circle cx="1162.5" cy="272.1" r="0.47" fill="#e8f0ff" opacity="0.21"/><circle cx="608.5" cy="73.0" r="0.40" fill="#e8f0ff" opacity="0.52"/><circle cx="379.5" cy="336.5" r="1.34" fill="#bfe6ff" opacity="0.33"/><circle cx="995.9" cy="317.2" r="0.42" fill="#e8f0ff" opacity="0.37"/><circle cx="1223.5" cy="356.0" r="0.61" fill="#e8f0ff" opacity="0.43"/><circle cx="533.8" cy="249.5" r="0.46" fill="#e8f0ff" opacity="0.28"/><circle cx="481.0" cy="245.3" r="1.39" fill="#e8f0ff" opacity="0.38"/><circle cx="557.1" cy="224.9" r="0.80" fill="#bfe6ff" opacity="0.43"/><circle cx="686.4" cy="248.0" r="0.54" fill="#e8f0ff" opacity="0.56"/><circle cx="1226.4" cy="78.7" r="0.49" fill="#e8f0ff" opacity="0.39"/><circle cx="10.0" cy="233.3" r="0.31" fill="#e8f0ff" opacity="0.20"/><circle cx="384.4" cy="333.8" r="1.33" fill="#bfe6ff" opacity="0.72"/><circle cx="503.1" cy="283.8" r="0.53" fill="#e8f0ff" opacity="0.21"/><circle cx="747.2" cy="33.0" r="1.26" fill="#bfe6ff" opacity="0.66"/><circle cx="1026.4" cy="181.2" r="0.74" fill="#e8f0ff" opacity="0.30"/><circle cx="1138.6" cy="299.0" r="1.11" fill="#e8f0ff" opacity="0.67"/><circle cx="696.5" cy="321.5" r="1.28" fill="#e8f0ff" opacity="0.32"/><circle cx="1105.7" cy="241.8" r="0.72" fill="#e8f0ff" opacity="0.51"/><circle cx="1190.1" cy="325.0" r="0.96" fill="#bfe6ff" opacity="0.61"/><circle cx="340.7" cy="34.9" r="1.30" fill="#e8f0ff" opacity="0.40"/><circle cx="98.2" cy="173.0" r="1.02" fill="#e8f0ff" opacity="0.42"/><circle cx="82.2" cy="239.5" r="0.76" fill="#e8f0ff" opacity="0.51"/><circle cx="278.2" cy="313.6" r="0.74" fill="#e8f0ff" opacity="0.65"/><circle cx="1175.8" cy="188.1" r="1.12" fill="#e8f0ff" opacity="0.15"/><circle cx="370.3" cy="41.7" r="0.91" fill="#bfe6ff" opacity="0.57"/><circle cx="1258.3" cy="36.3" r="0.74" fill="#e8f0ff" opacity="0.18"/><circle cx="764.7" cy="155.6" r="0.66" fill="#e8f0ff" opacity="0.53"/><circle cx="967.3" cy="180.3" r="1.20" fill="#e8f0ff" opacity="0.16"/><circle cx="750.8" cy="88.2" r="0.44" fill="#e8f0ff" opacity="0.18"/><circle cx="262.0" cy="232.6" r="0.75" fill="#e8f0ff" opacity="0.47"/><circle cx="1147.1" cy="18.5" r="0.46" fill="#e8f0ff" opacity="0.52"/><circle cx="283.1" cy="64.0" r="0.48" fill="#bfe6ff" opacity="0.36"/><circle cx="511.2" cy="95.2" r="1.27" fill="#e8f0ff" opacity="0.47"/><circle cx="603.0" cy="151.2" r="0.53" fill="#e8f0ff" opacity="0.45"/><circle cx="1208.2" cy="128.1" r="0.99" fill="#bfe6ff" opacity="0.58"/><circle cx="652.0" cy="228.1" r="1.35" fill="#e8f0ff" opacity="0.29"/><circle cx="358.4" cy="57.6" r="0.83" fill="#e8f0ff" opacity="0.57"/><circle cx="859.1" cy="138.7" r="1.22" fill="#e8f0ff" opacity="0.32"/><circle cx="1165.5" cy="99.6" r="0.93" fill="#e8f0ff" opacity="0.74"/><circle cx="476.2" cy="132.2" r="0.92" fill="#bfe6ff" opacity="0.67"/><circle cx="790.2" cy="175.7" r="1.07" fill="#e8f0ff" opacity="0.17"/><circle cx="497.3" cy="125.8" r="0.89" fill="#e8f0ff" opacity="0.68"/><circle cx="374.2" cy="188.1" r="0.39" fill="#e8f0ff" opacity="0.45"/><circle cx="286.8" cy="292.6" r="1.05" fill="#e8f0ff" opacity="0.31"/><circle cx="131.6" cy="162.0" r="0.34" fill="#bfe6ff" opacity="0.28"/><circle cx="538.5" cy="98.4" r="1.30" fill="#e8f0ff" opacity="0.17"/><circle cx="408.9" cy="63.0" r="0.52" fill="#e8f0ff" opacity="0.24"/><circle cx="193.3" cy="303.0" r="0.79" fill="#e8f0ff" opacity="0.24"/><circle cx="698.1" cy="78.2" r="1.36" fill="#e8f0ff" opacity="0.64"/><circle cx="972.6" cy="81.8" r="0.96" fill="#e8f0ff" opacity="0.36"/><circle cx="866.8" cy="82.0" r="1.39" fill="#bfe6ff" opacity="0.38"/><circle cx="855.4" cy="288.0" r="0.97" fill="#e8f0ff" opacity="0.33"/><circle cx="56.1" cy="286.5" r="0.53" fill="#bfe6ff" opacity="0.75"/><circle cx="730.8" cy="223.9" r="1.21" fill="#e8f0ff" opacity="0.34"/><circle cx="882.6" cy="182.7" r="0.86" fill="#e8f0ff" opacity="0.31"/><circle cx="398.0" cy="35.9" r="0.63" fill="#e8f0ff" opacity="0.54"/><circle cx="1247.6" cy="90.4" r="0.90" fill="#e8f0ff" opacity="0.61"/><circle cx="1056.3" cy="160.3" r="1.02" fill="#e8f0ff" opacity="0.16"/><circle cx="680.0" cy="47.0" r="0.56" fill="#bfe6ff" opacity="0.26"/><circle cx="277.8" cy="97.9" r="1.01" fill="#e8f0ff" opacity="0.38"/><circle cx="116.3" cy="122.7" r="1.31" fill="#e8f0ff" opacity="0.63"/><circle cx="47.5" cy="104.7" r="0.93" fill="#e8f0ff" opacity="0.48"/><circle cx="645.3" cy="83.6" r="0.38" fill="#bfe6ff" opacity="0.71"/><circle cx="411.9" cy="21.7" r="0.55" fill="#e8f0ff" opacity="0.51"/><circle cx="641.3" cy="235.5" r="0.85" fill="#e8f0ff" opacity="0.74"/><circle cx="1001.2" cy="253.8" r="0.83" fill="#e8f0ff" opacity="0.27"/><circle cx="1080.1" cy="263.8" r="1.03" fill="#e8f0ff" opacity="0.24"/><circle cx="1217.7" cy="5.2" r="0.38" fill="#e8f0ff" opacity="0.25"/><circle cx="663.1" cy="244.8" r="0.71" fill="#bfe6ff" opacity="0.20"/><circle cx="386.0" cy="297.6" r="1.00" fill="#e8f0ff" opacity="0.26"/><circle cx="790.9" cy="221.2" r="0.60" fill="#e8f0ff" opacity="0.62"/><circle cx="1132.7" cy="36.5" r="0.82" fill="#e8f0ff" opacity="0.22"/><circle cx="541.7" cy="34.3" r="0.40" fill="#e8f0ff" opacity="0.60"/><circle cx="1147.4" cy="132.3" r="1.36" fill="#bfe6ff" opacity="0.45"/><circle cx="567.9" cy="262.9" r="0.74" fill="#bfe6ff" opacity="0.37"/><circle cx="384.0" cy="136.7" r="0.55" fill="#e8f0ff" opacity="0.63"/><circle cx="1023.4" cy="223.9" r="0.39" fill="#e8f0ff" opacity="0.26"/><circle cx="290.4" cy="54.4" r="0.88" fill="#e8f0ff" opacity="0.39"/><circle cx="669.4" cy="15.4" r="0.42" fill="#e8f0ff" opacity="0.70"/><circle cx="1143.7" cy="351.0" r="1.21" fill="#e8f0ff" opacity="0.24"/><circle cx="643.8" cy="64.1" r="0.63" fill="#bfe6ff" opacity="0.63"/><circle cx="824.9" cy="224.5" r="0.83" fill="#bfe6ff" opacity="0.36"/><circle cx="402.0" cy="265.2" r="1.19" fill="#e8f0ff" opacity="0.44"/><circle cx="25.5" cy="32.4" r="0.59" fill="#e8f0ff" opacity="0.56"/><circle cx="1161.4" cy="10.2" r="0.71" fill="#bfe6ff" opacity="0.38"/><circle cx="732.4" cy="0.1" r="0.90" fill="#e8f0ff" opacity="0.54"/><circle cx="1157.1" cy="91.3" r="1.30" fill="#bfe6ff" opacity="0.26"/><circle cx="767.6" cy="42.3" r="0.75" fill="#e8f0ff" opacity="0.35"/><circle cx="28.0" cy="181.4" r="0.48" fill="#e8f0ff" opacity="0.17"/><circle cx="141.4" cy="40.9" r="0.53" fill="#bfe6ff" opacity="0.74"/><circle cx="782.3" cy="342.3" r="0.40" fill="#e8f0ff" opacity="0.23"/><circle cx="1130.5" cy="83.4" r="1.30" fill="#bfe6ff" opacity="0.59"/><circle cx="468.8" cy="194.4" r="0.93" fill="#e8f0ff" opacity="0.21"/><circle cx="878.0" cy="153.5" r="0.39" fill="#e8f0ff" opacity="0.40"/><circle cx="495.0" cy="169.9" r="1.32" fill="#e8f0ff" opacity="0.40"/><circle cx="234.9" cy="268.3" r="0.77" fill="#e8f0ff" opacity="0.29"/><circle cx="765.3" cy="213.3" r="0.42" fill="#e8f0ff" opacity="0.48"/><circle cx="1034.3" cy="121.1" r="0.99" fill="#bfe6ff" opacity="0.18"/><circle cx="204.6" cy="221.4" r="1.01" fill="#e8f0ff" opacity="0.19"/><circle cx="700.2" cy="346.2" r="0.38" fill="#e8f0ff" opacity="0.30"/><circle cx="583.3" cy="293.6" r="0.63" fill="#e8f0ff" opacity="0.38"/><circle cx="147.8" cy="291.7" r="0.69" fill="#bfe6ff" opacity="0.38"/><circle cx="42.8" cy="92.3" r="1.14" fill="#e8f0ff" opacity="0.54"/><circle cx="1042.0" cy="25.1" r="0.59" fill="#e8f0ff" opacity="0.35"/><circle cx="662.9" cy="96.4" r="0.48" fill="#e8f0ff" opacity="0.74"/><circle cx="551.3" cy="59.2" r="1.19" fill="#e8f0ff" opacity="0.43"/><circle cx="1195.0" cy="110.6" r="0.36" fill="#e8f0ff" opacity="0.63"/><circle cx="627.9" cy="348.3" r="0.35" fill="#e8f0ff" opacity="0.46"/><circle cx="907.6" cy="203.5" r="0.74" fill="#e8f0ff" opacity="0.32"/><circle cx="54.8" cy="318.4" r="0.70" fill="#e8f0ff" opacity="0.22"/><circle cx="1029.6" cy="31.4" r="0.53" fill="#e8f0ff" opacity="0.75"/><circle cx="381.0" cy="151.7" r="0.56" fill="#e8f0ff" opacity="0.50"/><circle cx="433.4" cy="56.8" r="0.96" fill="#bfe6ff" opacity="0.61"/><circle cx="503.0" cy="4.9" r="0.88" fill="#bfe6ff" opacity="0.71"/><circle cx="36.4" cy="300.5" r="1.33" fill="#e8f0ff" opacity="0.38"/><circle cx="699.9" cy="76.1" r="1.31" fill="#bfe6ff" opacity="0.73"/><circle cx="692.3" cy="198.0" r="0.73" fill="#e8f0ff" opacity="0.61"/><circle cx="1002.4" cy="241.1" r="1.06" fill="#e8f0ff" opacity="0.27"/><circle cx="946.8" cy="322.5" r="0.77" fill="#e8f0ff" opacity="0.46"/><circle cx="1055.6" cy="244.1" r="1.20" fill="#e8f0ff" opacity="0.50"/><circle cx="577.9" cy="40.9" r="0.45" fill="#e8f0ff" opacity="0.43"/><circle cx="298.5" cy="20.3" r="1.35" fill="#e8f0ff" opacity="0.25"/><circle cx="1021.9" cy="180.1" r="1.15" fill="#bfe6ff" opacity="0.18"/><circle cx="332.5" cy="345.7" r="1.01" fill="#e8f0ff" opacity="0.18"/><circle cx="1155.7" cy="65.6" r="0.30" fill="#e8f0ff" opacity="0.24"/><circle cx="7.0" cy="214.7" r="0.85" fill="#e8f0ff" opacity="0.55"/><circle cx="208.7" cy="177.1" r="0.48" fill="#e8f0ff" opacity="0.20"/><circle cx="980.7" cy="232.8" r="1.27" fill="#e8f0ff" opacity="0.55"/><circle cx="508.7" cy="312.2" r="0.72" fill="#e8f0ff" opacity="0.36"/><circle cx="733.1" cy="122.8" r="0.61" fill="#e8f0ff" opacity="0.39"/><circle cx="848.5" cy="246.4" r="0.44" fill="#e8f0ff" opacity="0.73"/><circle cx="1147.7" cy="236.8" r="1.32" fill="#bfe6ff" opacity="0.53"/><circle cx="696.8" cy="286.3" r="1.21" fill="#e8f0ff" opacity="0.46"/><circle cx="982.3" cy="249.9" r="0.41" fill="#e8f0ff" opacity="0.47"/><circle cx="300.7" cy="184.3" r="1.00" fill="#e8f0ff" opacity="0.29"/><circle cx="939.6" cy="146.4" r="1.07" fill="#e8f0ff" opacity="0.50"/><circle cx="84.1" cy="99.3" r="0.31" fill="#bfe6ff" opacity="0.64"/><circle cx="168.7" cy="122.9" r="0.67" fill="#e8f0ff" opacity="0.61"/><circle cx="1144.0" cy="129.8" r="0.31" fill="#bfe6ff" opacity="0.53"/><circle cx="348.9" cy="76.0" r="0.69" fill="#e8f0ff" opacity="0.46"/><circle cx="326.5" cy="191.9" r="1.08" fill="#e8f0ff" opacity="0.45"/><circle cx="824.8" cy="20.4" r="1.25" fill="#e8f0ff" opacity="0.20"/><circle cx="643.6" cy="266.0" r="0.65" fill="#bfe6ff" opacity="0.48"/><circle cx="885.4" cy="279.4" r="0.98" fill="#e8f0ff" opacity="0.66"/><circle cx="786.2" cy="316.9" r="0.71" fill="#e8f0ff" opacity="0.17"/><circle cx="18.7" cy="318.9" r="0.70" fill="#e8f0ff" opacity="0.21"/><circle cx="857.6" cy="24.7" r="0.43" fill="#bfe6ff" opacity="0.36"/><circle cx="647.6" cy="150.7" r="1.02" fill="#e8f0ff" opacity="0.60"/><circle cx="45.9" cy="349.9" r="0.39" fill="#e8f0ff" opacity="0.52"/><circle cx="931.1" cy="349.7" r="1.25" fill="#e8f0ff" opacity="0.52"/><circle cx="986.4" cy="91.7" r="0.96" fill="#e8f0ff" opacity="0.28"/><circle cx="910.5" cy="40.3" r="0.36" fill="#e8f0ff" opacity="0.32"/><circle cx="1070.2" cy="57.0" r="0.69" fill="#e8f0ff" opacity="0.47"/><circle cx="916.2" cy="27.9" r="1.30" fill="#e8f0ff" opacity="0.32"/><circle cx="1099.9" cy="159.7" r="0.77" fill="#e8f0ff" opacity="0.22"/><circle cx="694.0" cy="196.9" r="1.21" fill="#bfe6ff" opacity="0.71"/><circle cx="509.0" cy="104.3" r="1.36" fill="#e8f0ff" opacity="0.21"/><circle cx="187.3" cy="180.8" r="0.38" fill="#e8f0ff" opacity="0.58"/><circle cx="659.3" cy="161.2" r="0.96" fill="#e8f0ff" opacity="0.54"/><circle cx="1060.5" cy="346.0" r="0.87" fill="#e8f0ff" opacity="0.72"/><circle cx="1106.7" cy="295.9" r="0.53" fill="#e8f0ff" opacity="0.44"/><circle cx="192.4" cy="143.8" r="0.65" fill="#bfe6ff" opacity="0.42"/><circle cx="1275.7" cy="53.0" r="0.71" fill="#e8f0ff" opacity="0.73"/><circle cx="1191.9" cy="221.7" r="0.69" fill="#e8f0ff" opacity="0.42"/>
  <circle cx="124.9" cy="188.9" r="4.8" fill="url(#starGlow)" opacity="0.5"/><circle cx="124.9" cy="188.9" r="1.50" fill="#ffffff" opacity="0.95"/><circle cx="946.9" cy="251.3" r="5.0" fill="url(#starGlow)" opacity="0.5"/><circle cx="946.9" cy="251.3" r="1.56" fill="#ffffff" opacity="0.95"/><circle cx="889.0" cy="222.0" r="5.7" fill="url(#starGlow)" opacity="0.5"/><circle cx="889.0" cy="222.0" r="1.77" fill="#ffffff" opacity="0.95"/><circle cx="536.2" cy="176.0" r="5.4" fill="url(#starGlow)" opacity="0.5"/><circle cx="536.2" cy="176.0" r="1.68" fill="#ffffff" opacity="0.95"/><circle cx="957.8" cy="300.7" r="5.6" fill="url(#starGlow)" opacity="0.5"/><circle cx="957.8" cy="300.7" r="1.75" fill="#ffffff" opacity="0.95"/><circle cx="1115.6" cy="321.5" r="6.6" fill="url(#starGlow)" opacity="0.5"/><circle cx="1115.6" cy="321.5" r="2.05" fill="#ffffff" opacity="0.95"/><circle cx="993.4" cy="76.0" r="6.5" fill="url(#starGlow)" opacity="0.5"/><circle cx="993.4" cy="76.0" r="2.04" fill="#ffffff" opacity="0.95"/><circle cx="585.7" cy="252.4" r="4.8" fill="url(#starGlow)" opacity="0.5"/><circle cx="585.7" cy="252.4" r="1.51" fill="#ffffff" opacity="0.95"/><circle cx="694.6" cy="225.5" r="4.8" fill="url(#starGlow)" opacity="0.5"/><circle cx="694.6" cy="225.5" r="1.49" fill="#ffffff" opacity="0.95"/><circle cx="178.7" cy="37.9" r="6.2" fill="url(#starGlow)" opacity="0.5"/><circle cx="178.7" cy="37.9" r="1.94" fill="#ffffff" opacity="0.95"/>

  <!-- network constellation mesh -->
  <g><line x1="400" y1="77.7" x2="500" y2="65.3" stroke="#34d399" stroke-width="1" opacity="0.17"/><line x1="500" y1="65.3" x2="610" y2="58.9" stroke="#34d399" stroke-width="1" opacity="0.16"/><line x1="610" y1="58.9" x2="720" y2="39.4" stroke="#34d399" stroke-width="1" opacity="0.16"/><line x1="720" y1="39.4" x2="840" y2="72.7" stroke="#34d399" stroke-width="1" opacity="0.14"/><line x1="840" y1="72.7" x2="960" y2="71.6" stroke="#34d399" stroke-width="1" opacity="0.15"/><line x1="960" y1="71.6" x2="1080" y2="57.6" stroke="#34d399" stroke-width="1" opacity="0.15"/><line x1="960" y1="71.6" x2="1010" y2="140.0" stroke="#34d399" stroke-width="1" opacity="0.19"/><line x1="1080" y1="57.6" x2="1190" y2="92.2" stroke="#34d399" stroke-width="1" opacity="0.15"/><line x1="1080" y1="57.6" x2="1010" y2="140.0" stroke="#34d399" stroke-width="1" opacity="0.16"/><line x1="1080" y1="57.6" x2="1130" y2="120.0" stroke="#34d399" stroke-width="1" opacity="0.19"/><line x1="1190" y1="92.2" x2="1130" y2="120.0" stroke="#34d399" stroke-width="1" opacity="0.21"/><line x1="1190" y1="92.2" x2="1230" y2="172.0" stroke="#34d399" stroke-width="1" opacity="0.18"/><line x1="1010" y1="140.0" x2="1130" y2="120.0" stroke="#34d399" stroke-width="1" opacity="0.14"/><line x1="1010" y1="140.0" x2="1068" y2="208.0" stroke="#34d399" stroke-width="1" opacity="0.18"/><line x1="1010" y1="140.0" x2="992" y2="268.0" stroke="#34d399" stroke-width="1" opacity="0.14"/><line x1="1130" y1="120.0" x2="1230" y2="172.0" stroke="#34d399" stroke-width="1" opacity="0.15"/><line x1="1130" y1="120.0" x2="1068" y2="208.0" stroke="#34d399" stroke-width="1" opacity="0.16"/><line x1="1130" y1="120.0" x2="1182" y2="250.0" stroke="#34d399" stroke-width="1" opacity="0.12"/><line x1="1230" y1="172.0" x2="1182" y2="250.0" stroke="#34d399" stroke-width="1" opacity="0.18"/><line x1="1230" y1="172.0" x2="1224" y2="312.0" stroke="#34d399" stroke-width="1" opacity="0.12"/><line x1="1068" y1="208.0" x2="1182" y2="250.0" stroke="#34d399" stroke-width="1" opacity="0.15"/><line x1="1068" y1="208.0" x2="992" y2="268.0" stroke="#34d399" stroke-width="1" opacity="0.17"/><line x1="1068" y1="208.0" x2="1112" y2="300.0" stroke="#34d399" stroke-width="1" opacity="0.17"/><line x1="1068" y1="208.0" x2="1040" y2="330.0" stroke="#34d399" stroke-width="1" opacity="0.14"/><line x1="1182" y1="250.0" x2="1112" y2="300.0" stroke="#34d399" stroke-width="1" opacity="0.18"/><line x1="1182" y1="250.0" x2="1224" y2="312.0" stroke="#34d399" stroke-width="1" opacity="0.20"/><line x1="992" y1="268.0" x2="1112" y2="300.0" stroke="#34d399" stroke-width="1" opacity="0.14"/><line x1="992" y1="268.0" x2="1040" y2="330.0" stroke="#34d399" stroke-width="1" opacity="0.19"/><line x1="1112" y1="300.0" x2="1224" y2="312.0" stroke="#34d399" stroke-width="1" opacity="0.15"/><line x1="1112" y1="300.0" x2="1040" y2="330.0" stroke="#34d399" stroke-width="1" opacity="0.19"/><line x1="150" y1="300.0" x2="270" y2="320.0" stroke="#34d399" stroke-width="1" opacity="0.14"/><line x1="150" y1="300.0" x2="70" y2="250.0" stroke="#34d399" stroke-width="1" opacity="0.18"/><circle cx="400" cy="77.7" r="6.5" fill="url(#nodeGlow)" opacity="0.55"/><circle cx="400" cy="77.7" r="2.2" fill="#7dd3fc" opacity="0.9"/><circle cx="500" cy="65.3" r="6.5" fill="url(#nodeGlow)" opacity="0.55"/><circle cx="500" cy="65.3" r="2.2" fill="#7dd3fc" opacity="0.9"/><circle cx="610" cy="58.9" r="6.5" fill="url(#nodeGlow)" opacity="0.55"/><circle cx="610" cy="58.9" r="2.2" fill="#7dd3fc" opacity="0.9"/><circle cx="720" cy="39.4" r="6.5" fill="url(#nodeGlow)" opacity="0.55"/><circle cx="720" cy="39.4" r="2.2" fill="#7dd3fc" opacity="0.9"/><circle cx="840" cy="72.7" r="6.5" fill="url(#nodeGlow)" opacity="0.55"/><circle cx="840" cy="72.7" r="2.2" fill="#7dd3fc" opacity="0.9"/><circle cx="960" cy="71.6" r="6.5" fill="url(#nodeGlow)" opacity="0.55"/><circle cx="960" cy="71.6" r="2.2" fill="#7dd3fc" opacity="0.9"/><circle cx="1080" cy="57.6" r="6.5" fill="url(#nodeGlow)" opacity="0.55"/><circle cx="1080" cy="57.6" r="2.2" fill="#7dd3fc" opacity="0.9"/><circle cx="1190" cy="92.2" r="6.5" fill="url(#nodeGlow)" opacity="0.55"/><circle cx="1190" cy="92.2" r="2.2" fill="#7dd3fc" opacity="0.9"/><circle cx="1010" cy="140.0" r="6.5" fill="url(#nodeGlow)" opacity="0.55"/><circle cx="1010" cy="140.0" r="2.2" fill="#7dd3fc" opacity="0.9"/><circle cx="1130" cy="120.0" r="6.5" fill="url(#nodeGlow)" opacity="0.55"/><circle cx="1130" cy="120.0" r="2.2" fill="#7dd3fc" opacity="0.9"/><circle cx="1230" cy="172.0" r="6.5" fill="url(#nodeGlow)" opacity="0.55"/><circle cx="1230" cy="172.0" r="2.2" fill="#7dd3fc" opacity="0.9"/><circle cx="1068" cy="208.0" r="6.5" fill="url(#nodeGlow)" opacity="0.55"/><circle cx="1068" cy="208.0" r="2.2" fill="#7dd3fc" opacity="0.9"/><circle cx="1182" cy="250.0" r="6.5" fill="url(#nodeGlow)" opacity="0.55"/><circle cx="1182" cy="250.0" r="2.2" fill="#7dd3fc" opacity="0.9"/><circle cx="992" cy="268.0" r="6.5" fill="url(#nodeGlow)" opacity="0.55"/><circle cx="992" cy="268.0" r="2.2" fill="#7dd3fc" opacity="0.9"/><circle cx="1112" cy="300.0" r="6.5" fill="url(#nodeGlow)" opacity="0.55"/><circle cx="1112" cy="300.0" r="2.2" fill="#7dd3fc" opacity="0.9"/><circle cx="1224" cy="312.0" r="6.5" fill="url(#nodeGlow)" opacity="0.55"/><circle cx="1224" cy="312.0" r="2.2" fill="#7dd3fc" opacity="0.9"/><circle cx="1040" cy="330.0" r="6.5" fill="url(#nodeGlow)" opacity="0.55"/><circle cx="1040" cy="330.0" r="2.2" fill="#7dd3fc" opacity="0.9"/><circle cx="150" cy="300.0" r="6.5" fill="url(#nodeGlow)" opacity="0.55"/><circle cx="150" cy="300.0" r="2.2" fill="#7dd3fc" opacity="0.9"/><circle cx="270" cy="320.0" r="6.5" fill="url(#nodeGlow)" opacity="0.55"/><circle cx="270" cy="320.0" r="2.2" fill="#7dd3fc" opacity="0.9"/><circle cx="70" cy="250.0" r="6.5" fill="url(#nodeGlow)" opacity="0.55"/><circle cx="70" cy="250.0" r="2.2" fill="#7dd3fc" opacity="0.9"/></g>

  <!-- ===== eye mark, centered around (190,180) ===== -->
  <g transform="translate(80,70)">
    <circle cx="110" cy="110" r="100" stroke="#1b2a3a" stroke-width="1.5"/>
    <circle cx="110" cy="110" r="74" stroke="#1b2a3a" stroke-width="1.5"/>
    <circle cx="110" cy="110" r="48" stroke="#26384c" stroke-width="1.5"/>
    <path d="M110 110 L210 110 A100 100 0 0 0 178 39 Z" fill="url(#sweep2)"/>
    <path d="M14 110 Q110 26 206 110 Q110 194 14 110 Z" stroke="#34d399" stroke-width="3.5" fill="none" opacity="0.9"/>
    <circle cx="110" cy="110" r="44" fill="url(#iris2)"/>
    <circle cx="110" cy="110" r="44" stroke="#34d399" stroke-width="2" opacity="0.6"/>
    <line x1="110" y1="110" x2="156" y2="74" stroke="#7dd3fc" stroke-width="1.5" opacity="0.75"/>
    <line x1="110" y1="110" x2="64" y2="84" stroke="#7dd3fc" stroke-width="1.5" opacity="0.75"/>
    <line x1="110" y1="110" x2="138" y2="152" stroke="#7dd3fc" stroke-width="1.5" opacity="0.75"/>
    <line x1="110" y1="110" x2="78" y2="148" stroke="#7dd3fc" stroke-width="1.5" opacity="0.75"/>
    <circle cx="156" cy="74" r="5.5" fill="#7dd3fc"/>
    <circle cx="64" cy="84" r="5.5" fill="#7dd3fc"/>
    <circle cx="138" cy="152" r="5.5" fill="#7dd3fc"/>
    <circle cx="78" cy="148" r="5.5" fill="#7dd3fc"/>
    <circle cx="110" cy="110" r="16" fill="#0a0b0f" stroke="#34d399" stroke-width="2.5"/>
    <circle cx="110" cy="110" r="6" fill="#34d399"/>
  </g>

  <!-- ===== wordmark ===== -->
  <text x="360" y="175" font-family="ui-sans-serif, system-ui, -apple-system, Segoe UI, Roboto, sans-serif" font-size="104" font-weight="800" fill="url(#wordmark)" letter-spacing="-2">Iris</text>
  <text x="364" y="222" font-family="ui-sans-serif, system-ui, Segoe UI, Roboto, sans-serif" font-size="30" font-weight="600" fill="#34d399">god-mode for your home network</text>
  <text x="364" y="262" font-family="ui-monospace, SFMono-Regular, Menlo, monospace" font-size="17" fill="#6b7688">every device · live status · new-device alerts · zero router login</text>
</svg>
